<svg width="156" height="29" viewBox="0 0 156 29" fill="none" xmlns="http://www.w3.org/2000/svg">
<path d="M39.392 24C38.816 24 38.288 23.856 37.808 23.568C37.344 23.28 36.968 22.904 36.68 22.44C36.408 21.976 36.272 21.456 36.272 20.88V5.688H38.864V10.08H44.576V12.672H38.864V20.808C38.864 20.968 38.92 21.112 39.032 21.24C39.16 21.352 39.304 21.408 39.464 21.408H44.576V24H39.392ZM49.5393 24C48.9633 24 48.4433 23.856 47.9793 23.568C47.5153 23.28 47.1393 22.904 46.8513 22.44C46.5633 21.976 46.4193 21.456 46.4193 20.88V13.2C46.4193 12.624 46.5633 12.104 46.8513 11.64C47.1393 11.176 47.5153 10.8 47.9793 10.512C48.4433 10.224 48.9633 10.08 49.5393 10.08H57.4593C58.0353 10.08 58.5553 10.224 59.0193 10.512C59.4993 10.784 59.8753 11.16 60.1473 11.64C60.4353 12.12 60.5793 12.64 60.5793 13.2V18.336H49.0113V20.808C49.0113 20.968 49.0673 21.112 49.1793 21.24C49.3073 21.352 49.4513 21.408 49.6113 21.408H60.5793V24H49.5393ZM49.0113 15.912H57.9633V13.272C57.9633 13.112 57.9073 12.976 57.7953 12.864C57.6833 12.736 57.5473 12.672 57.3873 12.672H49.6113C49.4513 12.672 49.3073 12.736 49.1793 12.864C49.0673 12.976 49.0113 13.112 49.0113 13.272V15.912ZM65.6409 24C65.0649 24 64.5449 23.856 64.0809 23.568C63.6169 23.28 63.2409 22.904 62.9529 22.44C62.6649 21.976 62.5209 21.456 62.5209 20.88V13.2C62.5209 12.624 62.6649 12.104 62.9529 11.64C63.2409 11.176 63.6169 10.8 64.0809 10.512C64.5449 10.224 65.0649 10.08 65.6409 10.08H76.6329V12.672H65.7129C65.5529 12.672 65.4089 12.736 65.2809 12.864C65.1689 12.976 65.1129 13.112 65.1129 13.272V20.808C65.1129 20.968 65.1689 21.112 65.2809 21.24C65.4089 21.352 65.5529 21.408 65.7129 21.408H76.6809V24H65.6409ZM79.1866 24V5.52H81.7786V10.08H90.2266C90.8026 10.08 91.3226 10.224 91.7866 10.512C92.2666 10.8 92.6426 11.176 92.9146 11.64C93.2026 12.104 93.3466 12.624 93.3466 13.2V20.88C93.3466 21.456 93.2026 21.976 92.9146 22.44C92.6426 22.904 92.2666 23.28 91.7866 23.568C91.3226 23.856 90.8026 24 90.2266 24H79.1866ZM82.3786 21.408H90.1546C90.3146 21.408 90.4506 21.352 90.5626 21.24C90.6906 21.112 90.7546 20.968 90.7546 20.808V13.272C90.7546 13.112 90.6906 12.976 90.5626 12.864C90.4506 12.736 90.3146 12.672 90.1546 12.672H82.3786C82.2186 12.672 82.0746 12.736 81.9466 12.864C81.8346 12.976 81.7786 13.112 81.7786 13.272V20.808C81.7786 20.968 81.8346 21.112 81.9466 21.24C82.0746 21.352 82.2186 21.408 82.3786 21.408ZM98.2424 24C97.6664 24 97.1464 23.856 96.6824 23.568C96.2184 23.28 95.8424 22.904 95.5544 22.44C95.2664 21.976 95.1224 21.456 95.1224 20.88V13.2C95.1224 12.624 95.2664 12.104 95.5544 11.64C95.8424 11.176 96.2184 10.8 96.6824 10.512C97.1464 10.224 97.6664 10.08 98.2424 10.08H106.162C106.738 10.08 107.258 10.224 107.722 10.512C108.202 10.784 108.578 11.16 108.85 11.64C109.138 12.12 109.282 12.64 109.282 13.2V20.88C109.282 21.456 109.138 21.976 108.85 22.44C108.578 22.904 108.202 23.28 107.722 23.568C107.258 23.856 106.738 24 106.162 24H98.2424ZM98.3144 21.408H106.09C106.25 21.408 106.386 21.352 106.498 21.24C106.61 21.112 106.666 20.968 106.666 20.808V13.272C106.666 13.112 106.61 12.976 106.498 12.864C106.386 12.736 106.25 12.672 106.09 12.672H98.3144C98.1544 12.672 98.0104 12.736 97.8824 12.864C97.7704 12.976 97.7144 13.112 97.7144 13.272V20.808C97.7144 20.968 97.7704 21.112 97.8824 21.24C98.0104 21.352 98.1544 21.408 98.3144 21.408ZM114.509 24C113.933 24 113.405 23.856 112.925 23.568C112.461 23.28 112.085 22.904 111.797 22.44C111.525 21.976 111.389 21.456 111.389 20.88V15.744H122.933V13.272C122.933 13.112 122.877 12.976 122.765 12.864C122.653 12.736 122.517 12.672 122.357 12.672H111.389V10.08H122.429C123.005 10.08 123.525 10.224 123.989 10.512C124.469 10.784 124.845 11.16 125.117 11.64C125.405 12.12 125.549 12.64 125.549 13.2V24H114.509ZM114.581 21.408H122.933V18.168H113.981V20.808C113.981 20.968 114.037 21.112 114.149 21.24C114.277 21.352 114.421 21.408 114.581 21.408ZM127.748 24V13.2C127.748 12.624 127.892 12.104 128.18 11.64C128.468 11.176 128.844 10.8 129.308 10.512C129.788 10.224 130.308 10.08 130.868 10.08H138.644V12.672H130.94C130.78 12.672 130.636 12.736 130.508 12.864C130.396 12.976 130.34 13.112 130.34 13.272V24H127.748ZM142.852 24C142.276 24 141.748 23.864 141.268 23.592C140.804 23.304 140.428 22.92 140.14 22.44C139.868 21.96 139.732 21.44 139.732 20.88V13.2C139.732 12.624 139.868 12.104 140.14 11.64C140.428 11.176 140.804 10.8 141.268 10.512C141.748 10.224 142.276 10.08 142.852 10.08H151.3V5.52H153.892V24H142.852ZM142.948 21.408H150.724C150.884 21.408 151.02 21.352 151.132 21.24C151.244 21.112 151.3 20.968 151.3 20.808V13.272C151.3 13.112 151.244 12.976 151.132 12.864C151.02 12.736 150.884 12.672 150.724 12.672H142.948C142.788 12.672 142.644 12.736 142.516 12.864C142.404 12.976 142.348 13.112 142.348 13.272V20.808C142.348 20.968 142.404 21.112 142.516 21.24C142.644 21.352 142.788 21.408 142.948 21.408Z" fill="white"/>
<rect y="1" width="6.97349" height="7" rx="1" fill="white"/>
<rect x="10.0644" y="1" width="6.97349" height="7" rx="1" fill="white"/>
<rect width="6.97349" height="7" rx="1" transform="matrix(1 0 0 -1 8.07196 26)" fill="white"/>
<rect width="6.97349" height="7" rx="1" transform="matrix(1 0 0 -1 18.1364 26)" fill="white"/>
<line y1="-0.5" x2="18.7754" y2="-0.5" transform="matrix(0.424476 0.905439 -0.904195 0.427121 3.09094 5)" stroke="white"/>
<line y1="-0.5" x2="18.7754" y2="-0.5" transform="matrix(0.424476 0.905439 -0.904195 0.427121 13.1553 5)" stroke="white"/>
<rect x="3.81891" y="10" width="6.97349" height="7" rx="1" fill="white"/>
<rect x="13.8832" y="10" width="6.97349" height="7" rx="1" fill="white"/>
<rect x="20.0266" y="1" width="6.97349" height="7" rx="1" fill="white"/>
</svg>
